<svg xmlns="http://www.w3.org/2000/svg" id="svg2" fill-rule="evenodd" stroke-linejoin="bevel" stroke-width=".50099999" overflow="visible" viewBox="0 0 25.600005 25.600001">
  <defs id="defs4">
    <marker id="DefaultArrow2" markerHeight="1" markerWidth="1" orient="auto" overflow="visible" viewBox="0 0 1 1">
      <g id="g7" transform="scale(.00926)">
        <path id="path9" d="M-9 54V-54L117 0z"/>
      </g>
    </marker>
    <marker id="DefaultArrow3" markerHeight="1" markerWidth="1" orient="auto" overflow="visible" viewBox="0 0 1 1">
      <g id="g12" transform="scale(.00926)">
        <path id="path14" d="M-27 54L-9 0l-18-54L135 0z"/>
      </g>
    </marker>
    <marker id="DefaultArrow4" markerHeight="1" markerWidth="1" orient="auto" overflow="visible" viewBox="0 0 1 1">
      <g id="g17" transform="scale(.00926)">
        <path id="path19" d="M-9 0v-45c0-6.708 11.808-11.58 18-9L117-9c3.916 1.631 9 4.758 9 9s-5.084 7.369-9 9L9 54c-6.192 2.58-18-2.292-18-9z"/>
      </g>
    </marker>
    <marker id="DefaultArrow5" markerHeight="1" markerWidth="1" orient="auto" overflow="visible" viewBox="0 0 1 1">
      <g id="g22" transform="scale(.00926)">
        <path id="path24" d="M-54 0c0 29.807 24.193 54 54 54S54 29.807 54 0 29.807-54 0-54-54-29.807-54 0z"/>
      </g>
    </marker>
    <marker id="DefaultArrow6" markerHeight="1" markerWidth="1" orient="auto" overflow="visible" viewBox="0 0 1 1">
      <g id="g27" transform="scale(.00926)">
        <path id="path29" d="M-63 0L0 63 63 0 0-63z"/>
      </g>
    </marker>
    <marker id="DefaultArrow7" markerHeight="1" markerWidth="1" orient="auto" overflow="visible" viewBox="0 0 1 1">
      <g id="g32" transform="scale(.00926)">
        <path id="path34" d="M18-54h90L63 0l45 54H18L-36 0z"/>
      </g>
    </marker>
    <marker id="DefaultArrow8" markerHeight="1" markerWidth="1" orient="auto" overflow="visible" viewBox="0 0 1 1">
      <g id="g37" transform="scale(.00926)">
        <path id="path39" d="M-36 0l54-54h36L18-18h9l36-36h36L63-18h9l36-36h36L90 0l54 54h-36L72 18h-9l36 36H63L27 18h-9l36 36H18z"/>
      </g>
    </marker>
    <marker id="DefaultArrow9" markerHeight="1" markerWidth="1" orient="auto" overflow="visible" viewBox="0 0 1 1">
      <g id="g42" transform="scale(.00926)">
        <path id="path44" d="M0 45L-45 0 0-45 45 0zm0 18L-63 0 0-63 63 0z"/>
      </g>
    </marker>
    <filter id="StainedFilter" color-interpolation-filters="sRGB">
      <feBlend id="feBlend47" in="SourceGraphic" in2="BackgroundImage" mode="multiply" result="blend"/>
      <feComposite id="feComposite49" in="blend" in2="SourceAlpha" operator="in" result="comp"/>
    </filter>
    <filter id="BleachFilter" color-interpolation-filters="sRGB">
      <feBlend id="feBlend52" in="SourceGraphic" in2="BackgroundImage" mode="screen" result="blend"/>
      <feComposite id="feComposite54" in="blend" in2="SourceAlpha" operator="in" result="comp"/>
    </filter>
    <filter id="InvertTransparencyBitmapFilter" color-interpolation-filters="sRGB">
      <feComponentTransfer id="feComponentTransfer57">
        <feFuncR id="feFuncR59" amplitude="1.055" exponent=".41666667" offset="-.055" type="gamma"/>
        <feFuncG id="feFuncG61" amplitude="1.055" exponent=".41666667" offset="-.055" type="gamma"/>
        <feFuncB id="feFuncB63" amplitude="1.055" exponent=".41666667" offset="-.055" type="gamma"/>
      </feComponentTransfer>
      <feComponentTransfer id="feComponentTransfer65">
        <feFuncR id="feFuncR67" intercept="1" slope="-1" type="linear"/>
        <feFuncG id="feFuncG69" intercept="1" slope="-1" type="linear"/>
        <feFuncB id="feFuncB71" intercept="1" slope="-1" type="linear"/>
        <feFuncA id="feFuncA73" type="linear"/>
      </feComponentTransfer>
      <feComponentTransfer id="feComponentTransfer75">
        <feFuncR id="feFuncR77" exponent="2.4" type="gamma"/>
        <feFuncG id="feFuncG79" exponent="2.4" type="gamma"/>
        <feFuncB id="feFuncB81" exponent="2.4" type="gamma"/>
      </feComponentTransfer>
    </filter>
    <radialGradient id="RadialGradient" cx="0" cy="0" r="237.42799" gradientTransform="matrix(0 -1 .88605 0 172.174 122.358)" gradientUnits="userSpaceOnUse">
      <stop id="stop84" offset="0" stop-color="#473600"/>
      <stop id="stop86" offset=".792135" stop-color="#3d2f00"/>
      <stop id="stop88" offset=".99000001" stop-color="#3a2c00"/>
      <stop id="stop90" offset="1" stop-color="#3a2c00"/>
    </radialGradient>
    <radialGradient id="RadialGradient_1" cx="0" cy="0" r="237.42799" gradientTransform="matrix(0 -1 .88605 0 170.916 119.88)" gradientUnits="userSpaceOnUse">
      <stop id="stop93" offset="0" stop-color="#553e00"/>
      <stop id="stop95" offset=".792135" stop-color="#403200"/>
      <stop id="stop97" offset=".99000001" stop-color="#3b2b00"/>
      <stop id="stop99" offset="1" stop-color="#3b2b00"/>
    </radialGradient>
    <radialGradient id="RadialGradient_2" cx="0" cy="0" r="237.42799" gradientTransform="matrix(0 -1 .88605 0 169.66 117.403)" gradientUnits="userSpaceOnUse">
      <stop id="stop102" offset="0" stop-color="#634700"/>
      <stop id="stop104" offset=".792135" stop-color="#443400"/>
      <stop id="stop106" offset=".99000001" stop-color="#3c2a00"/>
      <stop id="stop108" offset="1" stop-color="#3c2a00"/>
    </radialGradient>
    <radialGradient id="RadialGradient_3" cx="0" cy="0" r="237.42799" gradientTransform="matrix(0 -1 .88605 0 168.403 114.925)" gradientUnits="userSpaceOnUse">
      <stop id="stop111" offset="0" stop-color="#724f00"/>
      <stop id="stop113" offset=".792135" stop-color="#473600"/>
      <stop id="stop115" offset=".99000001" stop-color="#3c2900"/>
      <stop id="stop117" offset="1" stop-color="#3c2900"/>
    </radialGradient>
    <radialGradient id="RadialGradient_4" cx="0" cy="0" r="237.42799" gradientTransform="matrix(0 -1 .88605 0 167.146 112.448)" gradientUnits="userSpaceOnUse">
      <stop id="stop120" offset="0" stop-color="#805800"/>
      <stop id="stop122" offset=".792135" stop-color="#4b3800"/>
      <stop id="stop124" offset=".99000001" stop-color="#3d2800"/>
      <stop id="stop126" offset="1" stop-color="#3d2800"/>
    </radialGradient>
    <radialGradient id="RadialGradient_5" cx="0" cy="0" r="237.42799" gradientTransform="matrix(0 -1 .88605 0 165.889 109.97)" gradientUnits="userSpaceOnUse">
      <stop id="stop129" offset="0" stop-color="#8e6000"/>
      <stop id="stop131" offset=".792135" stop-color="#4e3b00"/>
      <stop id="stop133" offset=".99000001" stop-color="#3e2700"/>
      <stop id="stop135" offset="1" stop-color="#3e2700"/>
    </radialGradient>
    <radialGradient id="RadialGradient_6" cx="0" cy="0" r="237.42799" gradientTransform="matrix(0 -1 .88605 0 164.632 107.493)" gradientUnits="userSpaceOnUse">
      <stop id="stop138" offset="0" stop-color="#9c6900"/>
      <stop id="stop140" offset=".792135" stop-color="#523d00"/>
      <stop id="stop142" offset=".99000001" stop-color="#3f2600"/>
      <stop id="stop144" offset="1" stop-color="#3f2600"/>
    </radialGradient>
    <linearGradient id="LinearGradient" x2="42.75" y2="36.75" gradientTransform="translate(218.601 165.399)" gradientUnits="userSpaceOnUse">
      <stop id="stop147" offset="0" stop-color="#5c5c5c"/>
      <stop id="stop149" offset="1"/>
    </linearGradient>
    <linearGradient id="LinearGradient_1" x2="-9.6719999" y2="-141.858" gradientTransform="translate(181.122 157.792)" gradientUnits="userSpaceOnUse">
      <stop id="stop152" offset="0" stop-color="#fff"/>
      <stop id="stop154" offset="1" stop-color="#cfd1d2"/>
    </linearGradient>
    <linearGradient id="LinearGradient_2" x2="69.75" y2="-189.75" gradientTransform="translate(259.851 172.899)" gradientUnits="userSpaceOnUse">
      <stop id="stop157" offset="0" stop-color="#b5b5b5"/>
      <stop id="stop159" offset="1"/>
    </linearGradient>
    <linearGradient id="LinearGradient_3" x2="-51.527" y2="-64.410004" gradientTransform="translate(204.11 87.059)" gradientUnits="userSpaceOnUse">
      <stop id="stop162" offset="0" stop-color="#df9000"/>
      <stop id="stop164" offset=".73033702" stop-color="#7f5200"/>
      <stop id="stop166" offset=".99000001" stop-color="#3f2600"/>
      <stop id="stop168" offset="1" stop-color="#3f2600"/>
    </linearGradient>
    <linearGradient id="LinearGradient_4" x2="19.041" y2="85.190002" gradientTransform="translate(199.945 96.333)" gradientUnits="userSpaceOnUse">
      <stop id="stop171" offset="0" stop-color="#ba7d00"/>
      <stop id="stop173" offset=".792135" stop-color="#7f5200"/>
      <stop id="stop175" offset=".99000001" stop-color="#3f2600"/>
      <stop id="stop177" offset="1" stop-color="#3f2600"/>
    </linearGradient>
    <linearGradient id="LinearGradient_5" x2="-1.007" y2="-63.535999" gradientTransform="translate(129.134 111.014)" gradientUnits="userSpaceOnUse">
      <stop id="stop180" offset="0" stop-color="#df9000"/>
      <stop id="stop182" offset=".792135" stop-color="#7f5200"/>
      <stop id="stop184" offset=".99000001" stop-color="#3f2600"/>
      <stop id="stop186" offset="1" stop-color="#3f2600"/>
    </linearGradient>
    <linearGradient id="LinearGradient_6" x2="15.098" y2="58.375" gradientTransform="translate(129.286 104.867)" gradientUnits="userSpaceOnUse">
      <stop id="stop189" offset="0" stop-color="#df9000"/>
      <stop id="stop191" offset=".792135" stop-color="#7f5200"/>
      <stop id="stop193" offset=".99000001" stop-color="#3f2600"/>
      <stop id="stop195" offset="1" stop-color="#3f2600"/>
    </linearGradient>
    <radialGradient id="RadialGradient_7" cx="0" cy="0" r="38.716999" gradientTransform="matrix(.69736 -.71673 1.23192 1.19862 183.351 196.899)" gradientUnits="userSpaceOnUse">
      <stop id="stop198" offset="0" stop-color="#6b4c29"/>
      <stop id="stop200" offset="1" stop-color="#a57348"/>
    </radialGradient>
    <radialGradient id="RadialGradient_8" cx="0" cy="0" r="120.999" gradientTransform="matrix(0 -1 .97394 0 134.346 314.993)" gradientUnits="userSpaceOnUse">
      <stop id="stop203" offset="0" stop-color="#e0bf9e"/>
      <stop id="stop205" offset=".0168539" stop-color="#e0bf9e"/>
      <stop id="stop207" offset=".20224699" stop-color="#e6b891"/>
      <stop id="stop209" offset="1" stop-color="#7b5d39"/>
    </radialGradient>
    <radialGradient id="RadialGradient_9" cx="0" cy="0" r="87.054001" gradientTransform="matrix(-.01429 -.9999 1.20614 -.01724 146.601 370.899)" gradientUnits="userSpaceOnUse">
      <stop id="stop212" offset="0" stop-color="#9a9a9a"/>
      <stop id="stop214" offset="1" stop-color="#313131"/>
    </radialGradient>
    <linearGradient id="LinearGradient_7" x2="-54" y2="-87" gradientTransform="translate(213.351 257.649)" gradientUnits="userSpaceOnUse">
      <stop id="stop217" offset="0" stop-color="#484848"/>
      <stop id="stop219" offset="1"/>
    </linearGradient>
    <linearGradient id="LinearGradient_8" x2="10.5" y2="-85.5" gradientTransform="translate(133.101 343.149)" gradientUnits="userSpaceOnUse">
      <stop id="stop222" offset="0" stop-color="#8d8d8d"/>
      <stop id="stop224" offset="1"/>
    </linearGradient>
    <linearGradient id="LinearGradient_9" x2="3.5999999" y2="-129" gradientTransform="translate(239.24 380.259)" gradientUnits="userSpaceOnUse">
      <stop id="stop227" offset="0" stop-color="#fff"/>
      <stop id="stop229" offset="1"/>
    </linearGradient>
    <linearGradient id="LinearGradient_10" x2="108" y2="-33.75" gradientTransform="translate(115.007 352.336)" gradientUnits="userSpaceOnUse">
      <stop id="stop232" offset="0" stop-color="#fff"/>
      <stop id="stop234" offset="1"/>
    </linearGradient>
    <linearGradient id="LinearGradient_11" x2="-51.527" y2="-64.410004" gradientTransform="translate(226.61 87.059)" gradientUnits="userSpaceOnUse">
      <stop id="stop237" offset="0" stop-color="#df9000"/>
      <stop id="stop239" offset=".73033702" stop-color="#7f5200"/>
      <stop id="stop241" offset=".99000001" stop-color="#3f2600"/>
      <stop id="stop243" offset="1" stop-color="#3f2600"/>
    </linearGradient>
  </defs>
  <g id="g3536" transform="matrix(.6405 0 0 .64032 0 25.600003)">
    <path id="path3538" d="M10.607865-6.6059071c-1.1174066-.4714935-2.4313163-1.4428035-2.9092531-2.5690565-.5112424-1.2128874.0099917-2.4074494.596172-3.3337754.6144901-.946319 1.4354756-1.847655 2.3330641-2.477424.872609-.609776 1.915078-1.03462 2.862625-.86968.944216.174936 1.611995.917996 1.946718 1.291192.193173.219919.313073.3632.398003.463163l.163198.174936.188177-.089967c.23647-.133284.644465-.409849 1.510413-1.007963 1.104084-.769717 2.825989-1.984271 4.233154-3.53037 1.422154-1.546099 2.536229-3.425408 2.985856-4.49335.208161-.493152.226479-.706407.203165-.833027-.041632-.039985-.086595-.073306-.166529-.11829-.404664-.231581-1.350546-.564792-1.890098-1.019625-.667779-.566459-.777688-1.319516-.749378-1.922628.033306-.606444.196504-1.179566.481267-1.83266.281433-.646429.692759-1.404484 1.217323-2.129218.519569-.7264 1.152378-1.419478 1.610331-1.850987.489594-.454833.825981-.639765 1.272278-.804704.466279-.168272 1.105749-.323215 2.064953.089967.862617.3632 2.049965 1.217886 2.716079 2.144212.709412.982973.810994 2.009262.796007 2.875611-.019984.927992-.189843 1.76102-1.164035 3.835258-.970861 2.06924-2.789352 5.446333-5.362217 8.496879-2.5712 3.050546-5.878455 5.739559-7.948404 7.3323072-2.053297 1.5744218-3.004174 2.1608731-4.049973 2.4357721-1.042469.2782311-2.149883.2515743-3.338896-.2565724zm3.017496-.9513173c.776023-.2049247 1.547049-.6347669 3.610337-2.219185 2.053297-1.5794196 5.273958-4.2017896 7.755232-7.1457086 2.476279-2.937255 4.241481-6.211052 5.185697-8.223647.937555-1.997599 1.030811-2.650693 1.047464-3.328777.011657-.746392-.079933-1.4528-.562866-2.119222-.512908-.716403-1.507083-1.437805-2.18985-1.724366-.592841-.256573-.889262-.161608-1.149046-.066642-.286429.104961-.482933.203258-.845965.541467-.401334.378195-.980853 1.011296-1.450463 1.671053-.471276.648096-.839304 1.32618-1.087431 1.895971-.244797.566458-.354706.989636-.37802 1.399486-.018318.409849.061616.693078.309743.903001.369693.313219 1.144051.569791 1.700256.886341.208161.11829.472941.294892.659453.618107l.05662.11829c.218152.524807.05995 1.127919-.219818 1.787676-.506247 1.201226-1.696925 3.203824-3.215665 4.853218-1.510413 1.65939-3.338896 2.943919-4.44298 3.713636-1.060787.729732-1.583686 1.096264-1.973363 1.241211-.103247.038319-.213156.069974-.326396.084969-.311408.041651-.571192-.043318-.802667-.204925l-.106578-.086635c-.188177-.169938-.398003-.43484-.696089-.771383-.361367-.406518-.769362-.806371-1.233976-.89134-.457954-.081636-1.154043.123288-1.923404.66309-.744383.519809-1.4587898 1.297857-2.0000073 2.127552-.5462135.863016-.7510435 1.567758-.4962549 2.1708694.2947554.699743 1.2656162 1.4944511 2.2464692 1.9059666.922568.394855 1.743553.4115155 2.529568.1999266z"/>
    <path id="path3540" d="M0-3.651992v-32.676332c0-2.01426 1.6353097-3.651992 3.6503044-3.651992H36.318198c2.013329 0 3.650304 1.637732 3.650304 3.651992v32.676332C39.968502-1.6360658 38.331527 0 36.318198 0H3.6503044C1.6353097 0 0-1.6360658 0-3.651992zm38.719538 0v-32.676332c0-1.322848-1.079104-2.402451-2.40134-2.402451H3.6503044c-1.3239014 0-2.4013408 1.079603-2.4013408 2.402451v32.676332c0 1.3245135 1.0774394 2.4024509 2.4013408 2.4024509H36.318198c1.322236 0 2.40134-1.0779374 2.40134-2.4024509z"/>
  </g>
</svg>
