<svg xmlns="http://www.w3.org/2000/svg" fill-rule="evenodd" stroke-linejoin="bevel" stroke-width=".50099999" overflow="visible" viewBox="0 0 25.600005 25.600001">
  <path d="M15.06913637 22.27049466c-.0575976-.0362715-.10772825-.077877-.1525261-.12481655-.17599147-.18562467-.2346555-.42245605-.2346555-.61661516 0-.30937439.01066624-1.32604253.01066624-2.58700998 0-.79690578-.26558717-1.2492323-.48957642-1.44659174-.25812086-.2293639-.12372731-.65822078.21865645-.69769267 1.93057268-.2240294 3.84301345-.90358629 3.84301345-4.26083207 0-.9281227-.32105127-1.67702241-.8447593-2.2616333-.10132838-.11414856-.13012654-.27523642-.073596-.41605495.0629304-.15682078.29225246-.82891025.04586428-1.78156938l-.06186398-.18562493c-.3007852.0256032-.94715346.18029042-2.0009694.91212111-.09812844.06934218-.22185574.0896115-.3370503.0565409-.69329963-.19629266-1.44312977-.29443899-2.19189349-.29763995-.74343091.00320096-1.4911282.10028052-2.18656068.29763995-.11519456.0330706-.23892187.01280128-.33705031-.05547412-1.05701587-.73289747-1.70338413-.8875847-2.00203647-.91318789l-.05973047.18562493c-.2453211.95265913-.01706612 1.62581538.04586429 1.7847697.05439766.13975176.02559886.29977349-.07466309.41178787-.52264095.58567765-.84262579 1.33457735-.84262579 2.26270006 0 3.3348429 1.89324178 4.04106977 3.83021434 4.27150044.34131669.04053866.47571024.46832877.21758938.69662526-.17599147.155754-.37864823.47579682-.4511778 1.00920067-.01813256.1344179-.1034619.2507-.22612277.30830768-.55570612.26136838-2.19935979.79690577-3.19557811-.94839268-.00426637-.00746741-.10452832-.18669106-.28905253-.37018244l.18879058.26670224c.12906075.2026933.25812086.45125976.38078173.77663645-.02346536-.08427764.38931448 1.48606375 2.62813931.98679753.24852105-.05654083.48637649.13335106.48637649.38831816.00213286.76916871.01386554 1.39965237.01386554 1.60661315 0 .19949317-.06399684.4416586-.26985354.64648577l-.0895957.07467655c-.2111895.1440191-.46931036.17922377-.74236384.128017l-.0554641-.01493534c-3.81101503-1.30257275-6.55221546-4.9937294-6.55221546-9.33457138 0-5.41618514 4.2803261-9.82743735 9.582469-9.82743735 5.30107583 0 9.59100136 4.41018544 9.59100136 9.82743735 0 4.34084197-2.74013394 8.0277314-6.54901578 9.33457138l-.05226416.01386857c-.26345366.05227354-.51410822.02453655-.72103135-.10668084zm.54610631-.6752896l.60903736-.23683138c3.1486474-1.37191538 5.36720682-4.5787409 5.36720682-8.32963813 0-4.99372954-3.94967527-9.02733125-8.79104056-9.02733125-4.84029885 0-8.78250775 4.03253494-8.78250775 9.02733125 0 3.75089723 2.2185591 6.9609232 5.36827318 8.32963813l.60690386.23469777h.11199462l.02239893-.0640085c0-.17282288-.00639988-.5312705-.01066625-1.0422716l-.01386618-.08534467c-2.12043033.25710078-2.85639494-1.10094603-3.02705296-1.5106001l-.03199874-.08427828c-.37651472-.9846636-.89488982-1.20442655-.81702692-1.16602144l-.05546397-.03200383c-.1802579-.12695049-.32745076-.2549671-.41811302-.39151854-.27305348-.4107211-.013866-.72863038.2655871-.83744444.2058567-.07894377.45651093-.07147636.46611075-.07147636 1.16687699.0821441 1.7417821 1.19375818 1.7343158 1.17882336.48637648.85131248 1.17754323.90038597 1.70125126.77343548l.2794527-.0992131.04906423-.233631c.04479785-.14828594.09812844-.2859048.16852516-.42565656l-.15252547-.02987028c-1.89964166-.40112014-3.72141965-1.53300356-3.72141965-4.9350551 0-.84704539.22185575-1.58527672.60797029-2.20935949l.29225246-.39045177-.04053148-.14401885c-.11946094-.49286583-.20798956-1.36124732.2005239-2.42805566.04373078-.11201502.13439355-.19949298.24958748-.23683132.13439355-.04480639.84049292-.19949297 2.23669197.61021408l.4938428.31470831.99835118-.20589361c.40318066-.05440735.8106277-.08214473 1.21700765-.08534505.40958053.00320032.81916043.0309377 1.22340752.08534505l.99941827.20589361.49170928-.31364154c1.39513262-.81077382 2.10336485-.65501982 2.23882484-.61128085.11412813.03733834.2058567.12374953.24852169.23683132.41064632 1.06574156.3221177 1.93412306.20159033 2.42912243l-.04053148.14295208.29225246.39045177c.38611454.62408277.6101038 1.3623141.6101038 2.2093595 0 3.4244544-1.8399112 4.5360685-3.73848578 4.92758703l-.16105885.02560384.1109282.2101607c.13545998.3424457.21652294.7574339.21652294 1.2417649 0 1.26096745-.01066625 2.2776356-.01066625 2.58700998l.01813256.06720894.11519392-.00106683z"/>
  <path d="M0 23.26155948V2.33825058C0 1.0484796 1.04741586-.00019294 2.33801997-.00019294h20.92378585c1.28953722 0 2.33801971 1.04867255 2.33801971 2.33844352v20.9233089c0 1.29083787-1.04848249 2.33844352-2.33801971 2.33844352H2.33801997C1.04741587 25.600003 0 24.55239735 0 23.26155948zm24.79986409 0V2.33825058c0-.84704604-.69116611-1.53833743-1.53805827-1.53833743H2.33801997c-.84795885 0-1.53805878.6912914-1.53805878 1.53833743v20.9233089c0 .84811249.69009993 1.53833736 1.53805878 1.53833736h20.92378585c.84689216 0 1.53805827-.69022487 1.53805827-1.53833736z"/>
</svg>
