<svg xmlns="http://www.w3.org/2000/svg" id="svg2" fill-rule="evenodd" stroke-linejoin="bevel" stroke-width=".50099999" overflow="visible" viewBox="0 0 25.600005 25.600001">
  <defs id="defs4">
    <marker id="DefaultArrow2" markerHeight="1" markerWidth="1" orient="auto" overflow="visible" viewBox="0 0 1 1">
      <g id="g7" transform="scale(.00926)">
        <path id="path9" d="M-9 54V-54L117 0z"/>
      </g>
    </marker>
    <marker id="DefaultArrow3" markerHeight="1" markerWidth="1" orient="auto" overflow="visible" viewBox="0 0 1 1">
      <g id="g12" transform="scale(.00926)">
        <path id="path14" d="M-27 54L-9 0l-18-54L135 0z"/>
      </g>
    </marker>
    <marker id="DefaultArrow4" markerHeight="1" markerWidth="1" orient="auto" overflow="visible" viewBox="0 0 1 1">
      <g id="g17" transform="scale(.00926)">
        <path id="path19" d="M-9 0v-45c0-6.708 11.808-11.58 18-9L117-9c3.916 1.631 9 4.758 9 9s-5.084 7.369-9 9L9 54c-6.192 2.58-18-2.292-18-9z"/>
      </g>
    </marker>
    <marker id="DefaultArrow5" markerHeight="1" markerWidth="1" orient="auto" overflow="visible" viewBox="0 0 1 1">
      <g id="g22" transform="scale(.00926)">
        <path id="path24" d="M-54 0c0 29.807 24.193 54 54 54S54 29.807 54 0 29.807-54 0-54-54-29.807-54 0z"/>
      </g>
    </marker>
    <marker id="DefaultArrow6" markerHeight="1" markerWidth="1" orient="auto" overflow="visible" viewBox="0 0 1 1">
      <g id="g27" transform="scale(.00926)">
        <path id="path29" d="M-63 0L0 63 63 0 0-63z"/>
      </g>
    </marker>
    <marker id="DefaultArrow7" markerHeight="1" markerWidth="1" orient="auto" overflow="visible" viewBox="0 0 1 1">
      <g id="g32" transform="scale(.00926)">
        <path id="path34" d="M18-54h90L63 0l45 54H18L-36 0z"/>
      </g>
    </marker>
    <marker id="DefaultArrow8" markerHeight="1" markerWidth="1" orient="auto" overflow="visible" viewBox="0 0 1 1">
      <g id="g37" transform="scale(.00926)">
        <path id="path39" d="M-36 0l54-54h36L18-18h9l36-36h36L63-18h9l36-36h36L90 0l54 54h-36L72 18h-9l36 36H63L27 18h-9l36 36H18z"/>
      </g>
    </marker>
    <marker id="DefaultArrow9" markerHeight="1" markerWidth="1" orient="auto" overflow="visible" viewBox="0 0 1 1">
      <g id="g42" transform="scale(.00926)">
        <path id="path44" d="M0 45L-45 0 0-45 45 0zm0 18L-63 0 0-63 63 0z"/>
      </g>
    </marker>
    <filter id="StainedFilter" color-interpolation-filters="sRGB">
      <feBlend id="feBlend47" in="SourceGraphic" in2="BackgroundImage" mode="multiply" result="blend"/>
      <feComposite id="feComposite49" in="blend" in2="SourceAlpha" operator="in" result="comp"/>
    </filter>
    <filter id="BleachFilter" color-interpolation-filters="sRGB">
      <feBlend id="feBlend52" in="SourceGraphic" in2="BackgroundImage" mode="screen" result="blend"/>
      <feComposite id="feComposite54" in="blend" in2="SourceAlpha" operator="in" result="comp"/>
    </filter>
    <filter id="InvertTransparencyBitmapFilter" color-interpolation-filters="sRGB">
      <feComponentTransfer id="feComponentTransfer57">
        <feFuncR id="feFuncR59" amplitude="1.055" exponent=".41666667" offset="-.055" type="gamma"/>
        <feFuncG id="feFuncG61" amplitude="1.055" exponent=".41666667" offset="-.055" type="gamma"/>
        <feFuncB id="feFuncB63" amplitude="1.055" exponent=".41666667" offset="-.055" type="gamma"/>
      </feComponentTransfer>
      <feComponentTransfer id="feComponentTransfer65">
        <feFuncR id="feFuncR67" intercept="1" slope="-1" type="linear"/>
        <feFuncG id="feFuncG69" intercept="1" slope="-1" type="linear"/>
        <feFuncB id="feFuncB71" intercept="1" slope="-1" type="linear"/>
        <feFuncA id="feFuncA73" type="linear"/>
      </feComponentTransfer>
      <feComponentTransfer id="feComponentTransfer75">
        <feFuncR id="feFuncR77" exponent="2.4" type="gamma"/>
        <feFuncG id="feFuncG79" exponent="2.4" type="gamma"/>
        <feFuncB id="feFuncB81" exponent="2.4" type="gamma"/>
      </feComponentTransfer>
    </filter>
    <radialGradient id="RadialGradient" cx="0" cy="0" r="237.42799" gradientTransform="matrix(0 -1 .88605 0 172.174 122.358)" gradientUnits="userSpaceOnUse">
      <stop id="stop84" offset="0" stop-color="#473600"/>
      <stop id="stop86" offset=".792135" stop-color="#3d2f00"/>
      <stop id="stop88" offset=".99000001" stop-color="#3a2c00"/>
      <stop id="stop90" offset="1" stop-color="#3a2c00"/>
    </radialGradient>
    <radialGradient id="RadialGradient_1" cx="0" cy="0" r="237.42799" gradientTransform="matrix(0 -1 .88605 0 170.916 119.88)" gradientUnits="userSpaceOnUse">
      <stop id="stop93" offset="0" stop-color="#553e00"/>
      <stop id="stop95" offset=".792135" stop-color="#403200"/>
      <stop id="stop97" offset=".99000001" stop-color="#3b2b00"/>
      <stop id="stop99" offset="1" stop-color="#3b2b00"/>
    </radialGradient>
    <radialGradient id="RadialGradient_2" cx="0" cy="0" r="237.42799" gradientTransform="matrix(0 -1 .88605 0 169.66 117.403)" gradientUnits="userSpaceOnUse">
      <stop id="stop102" offset="0" stop-color="#634700"/>
      <stop id="stop104" offset=".792135" stop-color="#443400"/>
      <stop id="stop106" offset=".99000001" stop-color="#3c2a00"/>
      <stop id="stop108" offset="1" stop-color="#3c2a00"/>
    </radialGradient>
    <radialGradient id="RadialGradient_3" cx="0" cy="0" r="237.42799" gradientTransform="matrix(0 -1 .88605 0 168.403 114.925)" gradientUnits="userSpaceOnUse">
      <stop id="stop111" offset="0" stop-color="#724f00"/>
      <stop id="stop113" offset=".792135" stop-color="#473600"/>
      <stop id="stop115" offset=".99000001" stop-color="#3c2900"/>
      <stop id="stop117" offset="1" stop-color="#3c2900"/>
    </radialGradient>
    <radialGradient id="RadialGradient_4" cx="0" cy="0" r="237.42799" gradientTransform="matrix(0 -1 .88605 0 167.146 112.448)" gradientUnits="userSpaceOnUse">
      <stop id="stop120" offset="0" stop-color="#805800"/>
      <stop id="stop122" offset=".792135" stop-color="#4b3800"/>
      <stop id="stop124" offset=".99000001" stop-color="#3d2800"/>
      <stop id="stop126" offset="1" stop-color="#3d2800"/>
    </radialGradient>
    <radialGradient id="RadialGradient_5" cx="0" cy="0" r="237.42799" gradientTransform="matrix(0 -1 .88605 0 165.889 109.97)" gradientUnits="userSpaceOnUse">
      <stop id="stop129" offset="0" stop-color="#8e6000"/>
      <stop id="stop131" offset=".792135" stop-color="#4e3b00"/>
      <stop id="stop133" offset=".99000001" stop-color="#3e2700"/>
      <stop id="stop135" offset="1" stop-color="#3e2700"/>
    </radialGradient>
    <radialGradient id="RadialGradient_6" cx="0" cy="0" r="237.42799" gradientTransform="matrix(0 -1 .88605 0 164.632 107.493)" gradientUnits="userSpaceOnUse">
      <stop id="stop138" offset="0" stop-color="#9c6900"/>
      <stop id="stop140" offset=".792135" stop-color="#523d00"/>
      <stop id="stop142" offset=".99000001" stop-color="#3f2600"/>
      <stop id="stop144" offset="1" stop-color="#3f2600"/>
    </radialGradient>
    <linearGradient id="LinearGradient" x2="42.75" y2="36.75" gradientTransform="translate(218.601 165.399)" gradientUnits="userSpaceOnUse">
      <stop id="stop147" offset="0" stop-color="#5c5c5c"/>
      <stop id="stop149" offset="1"/>
    </linearGradient>
    <linearGradient id="LinearGradient_1" x2="-9.6719999" y2="-141.858" gradientTransform="translate(181.122 157.792)" gradientUnits="userSpaceOnUse">
      <stop id="stop152" offset="0" stop-color="#fff"/>
      <stop id="stop154" offset="1" stop-color="#cfd1d2"/>
    </linearGradient>
    <linearGradient id="LinearGradient_2" x2="69.75" y2="-189.75" gradientTransform="translate(259.851 172.899)" gradientUnits="userSpaceOnUse">
      <stop id="stop157" offset="0" stop-color="#b5b5b5"/>
      <stop id="stop159" offset="1"/>
    </linearGradient>
    <linearGradient id="LinearGradient_3" x2="-51.527" y2="-64.410004" gradientTransform="translate(204.11 87.059)" gradientUnits="userSpaceOnUse">
      <stop id="stop162" offset="0" stop-color="#df9000"/>
      <stop id="stop164" offset=".73033702" stop-color="#7f5200"/>
      <stop id="stop166" offset=".99000001" stop-color="#3f2600"/>
      <stop id="stop168" offset="1" stop-color="#3f2600"/>
    </linearGradient>
    <linearGradient id="LinearGradient_4" x2="19.041" y2="85.190002" gradientTransform="translate(199.945 96.333)" gradientUnits="userSpaceOnUse">
      <stop id="stop171" offset="0" stop-color="#ba7d00"/>
      <stop id="stop173" offset=".792135" stop-color="#7f5200"/>
      <stop id="stop175" offset=".99000001" stop-color="#3f2600"/>
      <stop id="stop177" offset="1" stop-color="#3f2600"/>
    </linearGradient>
    <linearGradient id="LinearGradient_5" x2="-1.007" y2="-63.535999" gradientTransform="translate(129.134 111.014)" gradientUnits="userSpaceOnUse">
      <stop id="stop180" offset="0" stop-color="#df9000"/>
      <stop id="stop182" offset=".792135" stop-color="#7f5200"/>
      <stop id="stop184" offset=".99000001" stop-color="#3f2600"/>
      <stop id="stop186" offset="1" stop-color="#3f2600"/>
    </linearGradient>
    <linearGradient id="LinearGradient_6" x2="15.098" y2="58.375" gradientTransform="translate(129.286 104.867)" gradientUnits="userSpaceOnUse">
      <stop id="stop189" offset="0" stop-color="#df9000"/>
      <stop id="stop191" offset=".792135" stop-color="#7f5200"/>
      <stop id="stop193" offset=".99000001" stop-color="#3f2600"/>
      <stop id="stop195" offset="1" stop-color="#3f2600"/>
    </linearGradient>
    <radialGradient id="RadialGradient_7" cx="0" cy="0" r="38.716999" gradientTransform="matrix(.69736 -.71673 1.23192 1.19862 183.351 196.899)" gradientUnits="userSpaceOnUse">
      <stop id="stop198" offset="0" stop-color="#6b4c29"/>
      <stop id="stop200" offset="1" stop-color="#a57348"/>
    </radialGradient>
    <radialGradient id="RadialGradient_8" cx="0" cy="0" r="120.999" gradientTransform="matrix(0 -1 .97394 0 134.346 314.993)" gradientUnits="userSpaceOnUse">
      <stop id="stop203" offset="0" stop-color="#e0bf9e"/>
      <stop id="stop205" offset=".0168539" stop-color="#e0bf9e"/>
      <stop id="stop207" offset=".20224699" stop-color="#e6b891"/>
      <stop id="stop209" offset="1" stop-color="#7b5d39"/>
    </radialGradient>
    <radialGradient id="RadialGradient_9" cx="0" cy="0" r="87.054001" gradientTransform="matrix(-.01429 -.9999 1.20614 -.01724 146.601 370.899)" gradientUnits="userSpaceOnUse">
      <stop id="stop212" offset="0" stop-color="#9a9a9a"/>
      <stop id="stop214" offset="1" stop-color="#313131"/>
    </radialGradient>
    <linearGradient id="LinearGradient_7" x2="-54" y2="-87" gradientTransform="translate(213.351 257.649)" gradientUnits="userSpaceOnUse">
      <stop id="stop217" offset="0" stop-color="#484848"/>
      <stop id="stop219" offset="1"/>
    </linearGradient>
    <linearGradient id="LinearGradient_8" x2="10.5" y2="-85.5" gradientTransform="translate(133.101 343.149)" gradientUnits="userSpaceOnUse">
      <stop id="stop222" offset="0" stop-color="#8d8d8d"/>
      <stop id="stop224" offset="1"/>
    </linearGradient>
    <linearGradient id="LinearGradient_9" x2="3.5999999" y2="-129" gradientTransform="translate(239.24 380.259)" gradientUnits="userSpaceOnUse">
      <stop id="stop227" offset="0" stop-color="#fff"/>
      <stop id="stop229" offset="1"/>
    </linearGradient>
    <linearGradient id="LinearGradient_10" x2="108" y2="-33.75" gradientTransform="translate(115.007 352.336)" gradientUnits="userSpaceOnUse">
      <stop id="stop232" offset="0" stop-color="#fff"/>
      <stop id="stop234" offset="1"/>
    </linearGradient>
    <linearGradient id="LinearGradient_11" x2="-51.527" y2="-64.410004" gradientTransform="translate(226.61 87.059)" gradientUnits="userSpaceOnUse">
      <stop id="stop237" offset="0" stop-color="#df9000"/>
      <stop id="stop239" offset=".73033702" stop-color="#7f5200"/>
      <stop id="stop241" offset=".99000001" stop-color="#3f2600"/>
      <stop id="stop243" offset="1" stop-color="#3f2600"/>
    </linearGradient>
  </defs>
  <g id="g3696" transform="matrix(.6405 0 0 .64032 0 25.600003)">
    <path id="path3698" d="M23.527145-5.1997569c-.089926-.0566459-.168194-.121622-.238136-.1949284-.274772-.2898936-.366363-.6597577-.366363-.9629797 0-.4831559.016653-2.070906.016653-4.040183 0-1.244543-.414656-1.95095-.764366-2.25917-.402999-.358202-.193173-1.027956.341384-1.0896 3.014165-.349871 6.000021-1.411148 6.000021-6.654223 0-1.449467-.501251-2.619038-1.318906-3.532036-.158202-.178268-.203164-.429842-.114904-.649761.098252-.24491.456288-1.294525.071607-2.782311l-.096587-.289894c-.46961.039985-1.478772.281563-3.124074 1.424477-.153206.108293-.346379.139948-.52623.088301-1.082435-.306554-2.25313-.459831-3.42216-.46483-1.160704.004999-2.328069.15661-3.413834.46483-.179851.051647-.373024.019992-.52623-.086635-1.650298-1.14458-2.65946-1.386158-3.12574-1.426143l-.093256.289894c-.383015 1.487786-.026645 2.539067.071607 2.787309.08493.218253.039967.468162-.11657.643097-.815989.914664-1.315575 2.084235-1.315575 3.533702 0 5.208088 2.955881 6.311016 5.980038 6.670884.532891.06331.742717.731398.339718 1.087933-.274772.243244-.591176.743061-.704415 1.576088-.02831.209923-.161533.391523-.353041.48149-.867613.408184-3.433817 1.244543-4.989193-1.481123-.006661-.011662-.163198-.291559-.451292-.578121l.294755.416514c.2015.31655.402999.704741.594507 1.212888-.036636-.131618.607829 2.3208142 4.103262 1.5411006.388011-.0883009.75937.2082569.75937.6064439.00333 1.2012255.021648 2.1858639.021648 2.5090785 0 .3115523-.099917.6897467-.421317 1.0096292l-.139884.1166238c-.329726.2249174-.732725.2798972-1.159038.1999266l-.086595-.0233248C9.3039465-7.089063 5.0241644-12.853613 5.0241644-19.632789c0-8.45856 6.6827886-15.347697 14.9609196-15.347697 8.276465 0 14.974241 6.887471 14.974241 15.347697 0 6.779176-4.278117 12.5370618-10.224849 14.5779788l-.081599.0216588c-.411325.0816366-.802667.0383192-1.125732-.1666055zm.852625-1.0546127l.950878-.3698641c4.915921-2.1425465 8.379714-7.1507073 8.379714-13.0085553 0-7.798803-6.16655-14.098156-13.725278-14.098156-7.557063 0-13.7119559 6.297687-13.7119559 14.098156 0 5.857848 3.4637925 10.871007 8.3813789 13.0085553l.947547.366532h.174855l.034971-.0999633c0-.2699008-.009992-.8296953-.016653-1.6277355l-.021649-.1332844c-3.310586.4015192-4.459633-1.7193685-4.726078-2.3591331l-.049959-.131619c-.587845-1.537768-1.3971738-1.880976-1.275608-1.820998l-.0865948-.049981c-.2814331-.198261-.5112424-.398187-.6527916-.611442-.426313-.641431-.0216487-1.137916.4146559-1.307853.3214-.123288.7127415-.111626.7277295-.111626 1.821822.128286 2.71941 1.864315 2.707753 1.840991.75937 1.329511 1.838475 1.40615 2.65613 1.207889l.436304-.154943.076603-.364866c.069942-.231581.153206-.446503.263115-.664756l-.238135-.046649c-2.965873-.626437-5.810179-2.394121-5.810179-7.70717 0-1.322847.346379-2.475757.949212-3.450399l.456288-.609776-.063281-.224917c-.186512-.769718-.32473-2.125886.313074-3.791941.068276-.174936.209826-.311552.389676-.369864.209826-.069975 1.312245-.311552 3.492103.952983l.771027.491486 1.558706-.321548c.629478-.084969 1.265617-.128287 1.90009-.133285.63947.004998 1.278939.048316 1.910082.133285l1.560372.321548.767696-.48982c2.178193-1.266201 3.283942-1.022957 3.495433-.954649.178186.058312.3214.193262.388012.369864.641134 1.664389.502916 3.020557.314739 3.793607l-.063281.223251.456288.609776c.602833.974642.952543 2.127552.952543 3.450399 0 5.348036-2.872617 7.084065-5.836824 7.695507l-.251458.039986.17319.328212c.211491.534804.338053 1.182899.338053 1.939288 0 1.969277-.016653 3.5570271-.016653 4.040183l.02831.1049615.17985-.0016661z"/>
    <path id="path3700" d="M0-3.651992v-32.676332c0-2.01426 1.6353097-3.651992 3.6503044-3.651992H36.318198c2.013329 0 3.650304 1.637732 3.650304 3.651992v32.676332C39.968502-1.6360658 38.331527 0 36.318198 0H3.6503044C1.6353097 0 0-1.6360658 0-3.651992zm38.719538 0v-32.676332c0-1.322848-1.079104-2.402451-2.40134-2.402451H3.6503044c-1.3239014 0-2.4013408 1.079603-2.4013408 2.402451v32.676332c0 1.3245135 1.0774394 2.4024509 2.4013408 2.4024509H36.318198c1.322236 0 2.40134-1.0779374 2.40134-2.4024509z"/>
  </g>
</svg>
