<svg xmlns="http://www.w3.org/2000/svg" fill-rule="evenodd" stroke-linejoin="bevel" stroke-width=".50099999" overflow="visible" viewBox="0 0 25.600005 25.600001">
  <path d="M6.79433753 21.37010857c-.71569892-.30190672-1.55725809-.92385594-1.8633766-1.64501826-.32745077-.77663606.00639968-1.541538.38184816-2.13468307.3935809-.60594698.91942212-1.18309045 1.49432755-1.58634413.55890607-.39045177 1.22660746-.66248788 1.83351132-.5568735.60477034.11201502 1.0324828.5878112 1.24687288.82677606.1237273.14081854.20052325.23256423.25492092.29657253l.10452832.11201502.12052736-.05760767c.15145904-.0853444.41277984-.2624345.96741953-.64541886.7071658-.4928652 1.81004596-1.27056841 2.71133514-2.26056652.91088964-.98999811 1.62445467-2.19335725 1.91244077-2.87718187.13332712-.3157751.1450598-.45232653.13012718-.53340385-.0266653-.0256032-.0554641-.0469393-.10666183-.07574346-.25918729-.14828594-.8650247-.36164761-1.21060776-.65288628-.42771245-.36271502-.49810917-.84491248-.47997661-1.23109716.02133249-.38831822.1258608-.7552997.30825151-1.17348885.18025784-.41392142.44371214-.8993192.77969538-1.36338087.33278395-.46512845.73809811-.90892015 1.031417-1.185224.31358496-.29123866.52904084-.40965432.81489407-.51526806.2986517-.10774793.70823223-.20696103 1.3226024.05760767.55250618.23256422 1.31300257.77983676 1.7396486 1.37298183.45437838.62941727.51944165 1.28657064.50984248 1.84131123-.01279976.59421184-.12159445 1.12761633-.74556442 2.4557924-.62183647 1.32497576-1.78657996 3.48739595-3.4345 5.44072157-1.6468536 1.95332561-3.76515042 3.67515442-5.09095275 4.69502294-1.31513673 1.00813377-1.92417345 1.38365027-2.5940077 1.5596736-.6677014.17815693-1.37700007.16108805-2.1385629-.16428844zm1.9327062-.6091475c.49704272-.13121738.99088487-.40645394 2.31242084-1.42098854 1.31513673-1.01133396 3.3779701-2.69048991 4.9672261-4.57554013 1.5860567-1.88078312 2.71666858-3.97706081 3.32143892-5.26576564.60050398-1.2791026.66023445-1.69729175.6709007-2.1314825.0074663-.47792972-.0511971-.93025689-.36051568-1.35698022-.32851757-.45872717-.96528666-.9206553-1.40259892-1.10414604-.37971466-.16428882-.56957231-.10348084-.73596397-.0426722-.18345777.06720862-.30931858.13015016-.54184058.34671214-.25705442.24216582-.62823634.64755306-.92902155 1.07000866-.30185228.41498883-.53757421.84917958-.69649955 1.21402815-.15679248.36271439-.2271892.63368372-.24212181.89611888-.01173268.2624345.03946504.4437917.19839039.5782096.23678836.20056039.73276466.36484857 1.08901396.56754187.13332713.07574345.30291872.18882524.42237965.39578627l.03626511.07574345c.13972636.33604442.03839798.7222291-.14079343 1.1446847-.3242512.76916903-1.08688046 2.05147258-2.05963343 3.10761255-.96741953 1.0625406-2.13856289 1.88505021-2.84572869 2.3779154-.67943407.467262-1.01435088.70195977-1.263939.79477223-.0661297.02453642-.13652642.04480575-.20905664.05440735-.19945682.02666997-.36584848-.02773738-.51410821-.13121758l-.06826321-.05547412c-.12052737-.1088147-.25492092-.27843675-.445845-.49393196-.23145557-.2603016-.49277637-.51633548-.79036163-.57074283-.29331954-.05227316-.73916455.07894377-1.23194027.42458979-.4767773.3328441-.93435486.8310438-1.28100467 1.3623141-.34984975.5526064-.48104336 1.0038668-.31785127 1.39005109.18879084.44805944.81062718.95692693 1.43886353 1.22042853.5909048.25283356 1.1167457.2635016 1.6201883.128017z"/>
  <path d="M0 23.26155948V2.33825058C0 1.0484796 1.04741586-.00019294 2.33801997-.00019294h20.92378585c1.28953722 0 2.33801971 1.04867255 2.33801971 2.33844352v20.9233089c0 1.29083787-1.04848249 2.33844352-2.33801971 2.33844352H2.33801997C1.04741587 25.600003 0 24.55239735 0 23.26155948zm24.79986409 0V2.33825058c0-.84704604-.69116611-1.53833743-1.53805827-1.53833743H2.33801997c-.84795885 0-1.53805878.6912914-1.53805878 1.53833743v20.9233089c0 .84811249.69009993 1.53833736 1.53805878 1.53833736h20.92378585c.84689216 0 1.53805827-.69022487 1.53805827-1.53833736z"/>
</svg>
