<svg xmlns="http://www.w3.org/2000/svg" fill-rule="evenodd" stroke-linejoin="bevel" stroke-width=".50099999" overflow="visible" viewBox="0 0 25.600005 25.600001">
  <path d="M16.90051418 18.63161175l-1.5913895-2.01200006c-.08852927-.10774793-.15999242-.1696227-.21012307-.20482748l-.0554641-.03200384-.023466.05440735-.36264854 1.61941474-.06079754.33497765c-.10239481.34564602-.32638407.69875944-.78289532.78730418l-.28051978.01813597h-1.83991055c-3.2723747 0-6.22689815-4.66088499-8.29506452-10.4675219l-.01493261-.05440735c-.0703966-.34884633-.10559488-.73609778.06506352-1.04760578.19625715-.35951407.57170563-.4747294.96528654-.48646455l2.82759626.01920256c.17492503.00106677.329584.11521534.37971466.28270448.63570266 2.08987706 1.41646511 3.36684674 2.37108552 4.82304007l.0266653.0469393c.10346125.21762876.3199842.155754.43197882-.017069l.06826321-.20162653.00106707-3.28043556c0-.48219682-.21972288-.55047286-.75303008-.62621631-.24425532-.0352048-.3989143-.28163707-.3242512-.51633484.25705442-.81504156 1.10074664-1.23216393 2.27082293-1.23216393l1.07834772-.0256032c.87249102 0 1.66285265.37444953 1.66285265 1.49033135v4.31523879l.07679659.0426722c.1429263.05014026.42344608.06080799.65063527-.29550576.98021928-1.38258342 2.10976409-3.03400264 2.26869007-3.89705027.00639924-.0352048.01706549-.0682754.0319981-.10027987.19945683-.41925593.74449735-.71476169.96422023-.78197031.03093167-.0096016.09279564-.02773739.16532522-.02773739l2.94492357.00213355.18239134.00213419c.06933028.00853418.13759349.02346965.20372383.0469393.1770579.0640083.30185164.18029042.38398103.31257476.16105885.26243516.13865993.55687414.15465898.67422303.00639987.03947188.00639987.08001054 0 .1205492-.27625278 1.72822945-2.26335663 3.66555282-3.0985161 4.92225318-.21438945.29550576-.21758939.51633484-.01813256.75850002l2.77213203 3.47032758c.31998484.4576604.30291871.95799363-.03733154 1.31537415-.22185575.233631-.54397345.3637818-.8842237.40325369l-.3199842.00960115H17.9500631l.05226416-.00320051c-.38718097.0512069-.68796682-.10881406-.91408894-.33604442l-.18772414-.22616358zm1.04954892-.23469777l2.96518963.00106677c.31251788.01813578.5226416-.077877.60583742-.16535496.02879816-.02987093.0682632-.077877.02986523-.18135783l-.06399684-.11628147-2.74333387-3.43192247c-.47037744-.57287573-.39358085-1.19909204-.01813256-1.71862784.794628-1.19589173 2.50121207-2.90491861 2.90332565-4.31523878l.05439767-.24109905-.01386619-.15255368-.02133185-.11628211h-2.98332218l-.09492915.04480639c-.08959506.05013962-.20052325.12801662-.2794527.2026933l-.0799959.0992131-.09919551.35524697c-.34131669.95479332-1.19567515 2.22962946-1.92417345 3.26870042l-.3509165.49499937-.22185575.27310288c-.5887713.57287574-1.45912945.46832877-1.81431168-.0096016-.0842629-.11308179-.1450598-.25816741-.1450598-.42458978V7.90378907c0-.51633547-.2346555-.69022526-.85329204-.69022526l-1.07834772.0256032c-.51944165 0-.87355745.08854537-1.11034646.21656263l-.13119361.0853444.09279564.03307126c.39464791.17602332.74556377.51953515.74556377 1.24069747l-.00319993 3.33164195c-.07679595 1.04013837-1.34820126 1.49779877-1.9167065.69022526l-.0767966-.13228435c-.84902566-1.29403805-1.59032306-2.4909972-2.21002603-4.24162951l-.16532522-.50460034-2.52681106-.0160016c-.26025404.00640065-.27518666.0768096-.27092022.06934218-.0170658.02987093-.03733154.11094825-.01813243.29123867l.0309318.18882524.39464753 1.06467415c2.06603318 5.34897652 4.68137338 8.84063956 7.13565409 8.84063956l1.85697667.00106677c.25172098.01280192.30611865-.26776838.31891776-.4576604l.00959981-.05760767.36904842-1.65248599.01066624-.04053866c.05119773-.15255367.13012719-.30084026.25172099-.41605496.16532522-.15682077.3797153-.22723036.60583742-.19736007.31571782.04160607.59197123.26670224.81702692.5408719l1.6073892 2.03547035c.16532521.23683131.2741199.25923419.3562493.24856582l.05333059-.0042671z"/>
  <path d="M0 23.26155948V2.33825058C0 1.0484796 1.04741586-.00019294 2.33801997-.00019294h20.92378585c1.28953722 0 2.33801971 1.04867255 2.33801971 2.33844352v20.9233089c0 1.29083787-1.04848249 2.33844352-2.33801971 2.33844352H2.33801997C1.04741587 25.600003 0 24.55239735 0 23.26155948zm24.79986409 0V2.33825058c0-.84704604-.69116611-1.53833743-1.53805827-1.53833743H2.33801997c-.84795885 0-1.53805878.6912914-1.53805878 1.53833743v20.9233089c0 .84811249.69009993 1.53833736 1.53805878 1.53833736h20.92378585c.84689216 0 1.53805827-.69022487 1.53805827-1.53833736z"/>
</svg>
