<svg xmlns="http://www.w3.org/2000/svg" id="svg2" fill-rule="evenodd" stroke-linejoin="bevel" stroke-width=".50099999" overflow="visible" viewBox="0 0 25.600005 25.600001">
  <defs id="defs4">
    <marker id="DefaultArrow2" markerHeight="1" markerWidth="1" orient="auto" overflow="visible" viewBox="0 0 1 1">
      <g id="g7" transform="scale(.00926)">
        <path id="path9" d="M-9 54V-54L117 0z"/>
      </g>
    </marker>
    <marker id="DefaultArrow3" markerHeight="1" markerWidth="1" orient="auto" overflow="visible" viewBox="0 0 1 1">
      <g id="g12" transform="scale(.00926)">
        <path id="path14" d="M-27 54L-9 0l-18-54L135 0z"/>
      </g>
    </marker>
    <marker id="DefaultArrow4" markerHeight="1" markerWidth="1" orient="auto" overflow="visible" viewBox="0 0 1 1">
      <g id="g17" transform="scale(.00926)">
        <path id="path19" d="M-9 0v-45c0-6.708 11.808-11.58 18-9L117-9c3.916 1.631 9 4.758 9 9s-5.084 7.369-9 9L9 54c-6.192 2.58-18-2.292-18-9z"/>
      </g>
    </marker>
    <marker id="DefaultArrow5" markerHeight="1" markerWidth="1" orient="auto" overflow="visible" viewBox="0 0 1 1">
      <g id="g22" transform="scale(.00926)">
        <path id="path24" d="M-54 0c0 29.807 24.193 54 54 54S54 29.807 54 0 29.807-54 0-54-54-29.807-54 0z"/>
      </g>
    </marker>
    <marker id="DefaultArrow6" markerHeight="1" markerWidth="1" orient="auto" overflow="visible" viewBox="0 0 1 1">
      <g id="g27" transform="scale(.00926)">
        <path id="path29" d="M-63 0L0 63 63 0 0-63z"/>
      </g>
    </marker>
    <marker id="DefaultArrow7" markerHeight="1" markerWidth="1" orient="auto" overflow="visible" viewBox="0 0 1 1">
      <g id="g32" transform="scale(.00926)">
        <path id="path34" d="M18-54h90L63 0l45 54H18L-36 0z"/>
      </g>
    </marker>
    <marker id="DefaultArrow8" markerHeight="1" markerWidth="1" orient="auto" overflow="visible" viewBox="0 0 1 1">
      <g id="g37" transform="scale(.00926)">
        <path id="path39" d="M-36 0l54-54h36L18-18h9l36-36h36L63-18h9l36-36h36L90 0l54 54h-36L72 18h-9l36 36H63L27 18h-9l36 36H18z"/>
      </g>
    </marker>
    <marker id="DefaultArrow9" markerHeight="1" markerWidth="1" orient="auto" overflow="visible" viewBox="0 0 1 1">
      <g id="g42" transform="scale(.00926)">
        <path id="path44" d="M0 45L-45 0 0-45 45 0zm0 18L-63 0 0-63 63 0z"/>
      </g>
    </marker>
    <filter id="StainedFilter" color-interpolation-filters="sRGB">
      <feBlend id="feBlend47" in="SourceGraphic" in2="BackgroundImage" mode="multiply" result="blend"/>
      <feComposite id="feComposite49" in="blend" in2="SourceAlpha" operator="in" result="comp"/>
    </filter>
    <filter id="BleachFilter" color-interpolation-filters="sRGB">
      <feBlend id="feBlend52" in="SourceGraphic" in2="BackgroundImage" mode="screen" result="blend"/>
      <feComposite id="feComposite54" in="blend" in2="SourceAlpha" operator="in" result="comp"/>
    </filter>
    <filter id="InvertTransparencyBitmapFilter" color-interpolation-filters="sRGB">
      <feComponentTransfer id="feComponentTransfer57">
        <feFuncR id="feFuncR59" amplitude="1.055" exponent=".41666667" offset="-.055" type="gamma"/>
        <feFuncG id="feFuncG61" amplitude="1.055" exponent=".41666667" offset="-.055" type="gamma"/>
        <feFuncB id="feFuncB63" amplitude="1.055" exponent=".41666667" offset="-.055" type="gamma"/>
      </feComponentTransfer>
      <feComponentTransfer id="feComponentTransfer65">
        <feFuncR id="feFuncR67" intercept="1" slope="-1" type="linear"/>
        <feFuncG id="feFuncG69" intercept="1" slope="-1" type="linear"/>
        <feFuncB id="feFuncB71" intercept="1" slope="-1" type="linear"/>
        <feFuncA id="feFuncA73" type="linear"/>
      </feComponentTransfer>
      <feComponentTransfer id="feComponentTransfer75">
        <feFuncR id="feFuncR77" exponent="2.4" type="gamma"/>
        <feFuncG id="feFuncG79" exponent="2.4" type="gamma"/>
        <feFuncB id="feFuncB81" exponent="2.4" type="gamma"/>
      </feComponentTransfer>
    </filter>
    <radialGradient id="RadialGradient" cx="0" cy="0" r="237.42799" gradientTransform="matrix(0 -1 .88605 0 172.174 122.358)" gradientUnits="userSpaceOnUse">
      <stop id="stop84" offset="0" stop-color="#473600"/>
      <stop id="stop86" offset=".792135" stop-color="#3d2f00"/>
      <stop id="stop88" offset=".99000001" stop-color="#3a2c00"/>
      <stop id="stop90" offset="1" stop-color="#3a2c00"/>
    </radialGradient>
    <radialGradient id="RadialGradient_1" cx="0" cy="0" r="237.42799" gradientTransform="matrix(0 -1 .88605 0 170.916 119.88)" gradientUnits="userSpaceOnUse">
      <stop id="stop93" offset="0" stop-color="#553e00"/>
      <stop id="stop95" offset=".792135" stop-color="#403200"/>
      <stop id="stop97" offset=".99000001" stop-color="#3b2b00"/>
      <stop id="stop99" offset="1" stop-color="#3b2b00"/>
    </radialGradient>
    <radialGradient id="RadialGradient_2" cx="0" cy="0" r="237.42799" gradientTransform="matrix(0 -1 .88605 0 169.66 117.403)" gradientUnits="userSpaceOnUse">
      <stop id="stop102" offset="0" stop-color="#634700"/>
      <stop id="stop104" offset=".792135" stop-color="#443400"/>
      <stop id="stop106" offset=".99000001" stop-color="#3c2a00"/>
      <stop id="stop108" offset="1" stop-color="#3c2a00"/>
    </radialGradient>
    <radialGradient id="RadialGradient_3" cx="0" cy="0" r="237.42799" gradientTransform="matrix(0 -1 .88605 0 168.403 114.925)" gradientUnits="userSpaceOnUse">
      <stop id="stop111" offset="0" stop-color="#724f00"/>
      <stop id="stop113" offset=".792135" stop-color="#473600"/>
      <stop id="stop115" offset=".99000001" stop-color="#3c2900"/>
      <stop id="stop117" offset="1" stop-color="#3c2900"/>
    </radialGradient>
    <radialGradient id="RadialGradient_4" cx="0" cy="0" r="237.42799" gradientTransform="matrix(0 -1 .88605 0 167.146 112.448)" gradientUnits="userSpaceOnUse">
      <stop id="stop120" offset="0" stop-color="#805800"/>
      <stop id="stop122" offset=".792135" stop-color="#4b3800"/>
      <stop id="stop124" offset=".99000001" stop-color="#3d2800"/>
      <stop id="stop126" offset="1" stop-color="#3d2800"/>
    </radialGradient>
    <radialGradient id="RadialGradient_5" cx="0" cy="0" r="237.42799" gradientTransform="matrix(0 -1 .88605 0 165.889 109.97)" gradientUnits="userSpaceOnUse">
      <stop id="stop129" offset="0" stop-color="#8e6000"/>
      <stop id="stop131" offset=".792135" stop-color="#4e3b00"/>
      <stop id="stop133" offset=".99000001" stop-color="#3e2700"/>
      <stop id="stop135" offset="1" stop-color="#3e2700"/>
    </radialGradient>
    <radialGradient id="RadialGradient_6" cx="0" cy="0" r="237.42799" gradientTransform="matrix(0 -1 .88605 0 164.632 107.493)" gradientUnits="userSpaceOnUse">
      <stop id="stop138" offset="0" stop-color="#9c6900"/>
      <stop id="stop140" offset=".792135" stop-color="#523d00"/>
      <stop id="stop142" offset=".99000001" stop-color="#3f2600"/>
      <stop id="stop144" offset="1" stop-color="#3f2600"/>
    </radialGradient>
    <linearGradient id="LinearGradient" x2="42.75" y2="36.75" gradientTransform="translate(218.601 165.399)" gradientUnits="userSpaceOnUse">
      <stop id="stop147" offset="0" stop-color="#5c5c5c"/>
      <stop id="stop149" offset="1"/>
    </linearGradient>
    <linearGradient id="LinearGradient_1" x2="-9.6719999" y2="-141.858" gradientTransform="translate(181.122 157.792)" gradientUnits="userSpaceOnUse">
      <stop id="stop152" offset="0" stop-color="#fff"/>
      <stop id="stop154" offset="1" stop-color="#cfd1d2"/>
    </linearGradient>
    <linearGradient id="LinearGradient_2" x2="69.75" y2="-189.75" gradientTransform="translate(259.851 172.899)" gradientUnits="userSpaceOnUse">
      <stop id="stop157" offset="0" stop-color="#b5b5b5"/>
      <stop id="stop159" offset="1"/>
    </linearGradient>
    <linearGradient id="LinearGradient_3" x2="-51.527" y2="-64.410004" gradientTransform="translate(204.11 87.059)" gradientUnits="userSpaceOnUse">
      <stop id="stop162" offset="0" stop-color="#df9000"/>
      <stop id="stop164" offset=".73033702" stop-color="#7f5200"/>
      <stop id="stop166" offset=".99000001" stop-color="#3f2600"/>
      <stop id="stop168" offset="1" stop-color="#3f2600"/>
    </linearGradient>
    <linearGradient id="LinearGradient_4" x2="19.041" y2="85.190002" gradientTransform="translate(199.945 96.333)" gradientUnits="userSpaceOnUse">
      <stop id="stop171" offset="0" stop-color="#ba7d00"/>
      <stop id="stop173" offset=".792135" stop-color="#7f5200"/>
      <stop id="stop175" offset=".99000001" stop-color="#3f2600"/>
      <stop id="stop177" offset="1" stop-color="#3f2600"/>
    </linearGradient>
    <linearGradient id="LinearGradient_5" x2="-1.007" y2="-63.535999" gradientTransform="translate(129.134 111.014)" gradientUnits="userSpaceOnUse">
      <stop id="stop180" offset="0" stop-color="#df9000"/>
      <stop id="stop182" offset=".792135" stop-color="#7f5200"/>
      <stop id="stop184" offset=".99000001" stop-color="#3f2600"/>
      <stop id="stop186" offset="1" stop-color="#3f2600"/>
    </linearGradient>
    <linearGradient id="LinearGradient_6" x2="15.098" y2="58.375" gradientTransform="translate(129.286 104.867)" gradientUnits="userSpaceOnUse">
      <stop id="stop189" offset="0" stop-color="#df9000"/>
      <stop id="stop191" offset=".792135" stop-color="#7f5200"/>
      <stop id="stop193" offset=".99000001" stop-color="#3f2600"/>
      <stop id="stop195" offset="1" stop-color="#3f2600"/>
    </linearGradient>
    <radialGradient id="RadialGradient_7" cx="0" cy="0" r="38.716999" gradientTransform="matrix(.69736 -.71673 1.23192 1.19862 183.351 196.899)" gradientUnits="userSpaceOnUse">
      <stop id="stop198" offset="0" stop-color="#6b4c29"/>
      <stop id="stop200" offset="1" stop-color="#a57348"/>
    </radialGradient>
    <radialGradient id="RadialGradient_8" cx="0" cy="0" r="120.999" gradientTransform="matrix(0 -1 .97394 0 134.346 314.993)" gradientUnits="userSpaceOnUse">
      <stop id="stop203" offset="0" stop-color="#e0bf9e"/>
      <stop id="stop205" offset=".0168539" stop-color="#e0bf9e"/>
      <stop id="stop207" offset=".20224699" stop-color="#e6b891"/>
      <stop id="stop209" offset="1" stop-color="#7b5d39"/>
    </radialGradient>
    <radialGradient id="RadialGradient_9" cx="0" cy="0" r="87.054001" gradientTransform="matrix(-.01429 -.9999 1.20614 -.01724 146.601 370.899)" gradientUnits="userSpaceOnUse">
      <stop id="stop212" offset="0" stop-color="#9a9a9a"/>
      <stop id="stop214" offset="1" stop-color="#313131"/>
    </radialGradient>
    <linearGradient id="LinearGradient_7" x2="-54" y2="-87" gradientTransform="translate(213.351 257.649)" gradientUnits="userSpaceOnUse">
      <stop id="stop217" offset="0" stop-color="#484848"/>
      <stop id="stop219" offset="1"/>
    </linearGradient>
    <linearGradient id="LinearGradient_8" x2="10.5" y2="-85.5" gradientTransform="translate(133.101 343.149)" gradientUnits="userSpaceOnUse">
      <stop id="stop222" offset="0" stop-color="#8d8d8d"/>
      <stop id="stop224" offset="1"/>
    </linearGradient>
    <linearGradient id="LinearGradient_9" x2="3.5999999" y2="-129" gradientTransform="translate(239.24 380.259)" gradientUnits="userSpaceOnUse">
      <stop id="stop227" offset="0" stop-color="#fff"/>
      <stop id="stop229" offset="1"/>
    </linearGradient>
    <linearGradient id="LinearGradient_10" x2="108" y2="-33.75" gradientTransform="translate(115.007 352.336)" gradientUnits="userSpaceOnUse">
      <stop id="stop232" offset="0" stop-color="#fff"/>
      <stop id="stop234" offset="1"/>
    </linearGradient>
    <linearGradient id="LinearGradient_11" x2="-51.527" y2="-64.410004" gradientTransform="translate(226.61 87.059)" gradientUnits="userSpaceOnUse">
      <stop id="stop237" offset="0" stop-color="#df9000"/>
      <stop id="stop239" offset=".73033702" stop-color="#7f5200"/>
      <stop id="stop241" offset=".99000001" stop-color="#3f2600"/>
      <stop id="stop243" offset="1" stop-color="#3f2600"/>
    </linearGradient>
  </defs>
  <g id="g3396" transform="matrix(.6405 0 0 .64032 0 25.600003)">
    <path id="path3398" d="M26.386439-10.88267l-2.484605-3.142179c-.138219-.168272-.249793-.264903-.328061-.319883l-.086595-.049981-.036637.084969-.566196 2.529071-.094922.523141c-.159867.539802-.509577 1.091266-1.222319 1.229548l-.43797.0283233h-2.872616c-5.109094 0-9.7219331-7.2789933-12.9509204-16.3473293l-.023314-.084969c-.1099088-.5448-.1648632-1.149578.1015824-1.636066.3064124-.56146.8925927-.741394 1.5070828-.759721l4.4146702.029989c.273107.001666.514573.179934.592841.441505.99251 3.263801 2.211499 5.258069 3.701929 7.532234l.041632.073306c.161532.339875.499585.243244.67444-.026657l.106578-.314884.001666-5.123119c0-.753056-.343049-.859684-1.175691-.977974-.381351-.05498-.622817-.439838-.506247-.80637.401334-1.272866 1.718574-1.924294 3.545391-1.924294l1.683603-.039985c1.362203 0 2.596179.584785 2.596179 2.327479v6.739191l.119901.066642c.223148.078305.661118.094965 1.015824-.461497 1.530397-2.159207 3.293933-4.73826 3.542061-6.086098.009991-.05498.026644-.106627.049958-.156609.311408-.65476 1.162369-1.116257 1.505418-1.221218.048293-.014995.14488-.043318.258119-.043318l4.597851.003332.284764.003333c.108244.013328.214822.036653.31807.073306.276437.099963.471275.281563.599502.488154.251458.40985.216487.869681.241466 1.052947.009992.061644.009992.124954 0 .188264-.431308 2.699009-3.533734 5.724564-4.837652 7.687177-.334722.461497-.339718.80637-.02831 1.184564l4.328075 5.419677c.499586.714737.472941 1.496117-.058285 2.054245-.346379.364866-.849295.568125-1.380521.629769l-.499585.0149943h-4.599517l.081599-.0049983c-.604498.0799708-1.074109-.169937-1.427149-.524807l-.29309-.353204zm1.63864-.366532l4.629492.001666c.487928.028323.81599-.121622.945882-.258238.044962-.04665.106578-.121622.046628-.28323l-.099917-.181599-4.283113-5.359699c-.734391-.894671-.61449-1.872645-.02831-2.684014 1.240637-1.867647 3.905093-4.536667 4.532905-6.739191l.08493-.376529-.021649-.238246-.033305-.1816H29.14082l-.148211.069975c-.139883.078304-.313073.199926-.436304.31655l-.124896.154943-.154872.554796c-.532891 1.491119-1.866784 3.482055-3.004174 5.104792l-.547879.77305-.346379.42651c-.919237.894671-2.27811.731398-2.832649-.014995-.131558-.176602-.226479-.403185-.226479-.66309v-6.809165c0-.806371-.366363-1.077938-1.332228-1.077938l-1.683603.039985c-.810994 0-1.363868.138283-1.733562.33821l-.20483.133284.14488.051648c.616156.274899 1.164034.811368 1.164034 1.937621l-.004996 5.203089c-.1199 1.624404-2.10492 2.339141-2.992516 1.077938l-.119901-.206591c-1.325567-2.020924-2.48294-3.890238-3.45047-6.624234l-.258119-.788044-3.9450602-.02499c-.4063295.009996-.4296435.119955-.4229824.108293-.0266445.04665-.058285.17327-.0283098.454833l.0482932.294892.6161554 1.662722c3.2256568 8.353599 7.3089358 13.806596 11.1407558 13.806596l2.899261.001666c.393007.019993.477937-.418179.49792-.714737l.014988-.089967.576188-2.580719.016653-.06331c.079934-.238246.203165-.469828.393007-.649761.258119-.24491.592842-.35487.945882-.308221.492924.064977.924233.416514 1.275608.84469l2.509585 3.178833c.258119.369864.427978.404851.556205.38819l.083264-.006664z"/>
    <path id="path3400" d="M0-3.651992v-32.676332c0-2.01426 1.6353097-3.651992 3.6503044-3.651992H36.318198c2.013329 0 3.650304 1.637732 3.650304 3.651992v32.676332C39.968502-1.6360658 38.331527 0 36.318198 0H3.6503044C1.6353097 0 0-1.6360658 0-3.651992zm38.719538 0v-32.676332c0-1.322848-1.079104-2.402451-2.40134-2.402451H3.6503044c-1.3239014 0-2.4013408 1.079603-2.4013408 2.402451v32.676332c0 1.3245135 1.0774394 2.4024509 2.4013408 2.4024509H36.318198c1.322236 0 2.40134-1.0779374 2.40134-2.4024509z"/>
  </g>
</svg>
