<svg xmlns="http://www.w3.org/2000/svg" fill-rule="evenodd" stroke-linejoin="bevel" stroke-width=".50099999" overflow="visible" viewBox="0 0 25.600005 25.600001">
  <path d="M0 23.26155948V2.33825058C0 1.0484796 1.04741586-.00019294 2.33801997-.00019294h20.92378585c1.28953722 0 2.33801971 1.04867255 2.33801971 2.33844352v20.9233089c0 1.29083787-1.04848249 2.33844352-2.33801971 2.33844352H2.33801997C1.04741587 25.600003 0 24.55239735 0 23.26155948zm24.79986409 0V2.33825058c0-.84704604-.69116611-1.53833743-1.53805827-1.53833743H2.33801997c-.84795885 0-1.53805878.6912914-1.53805878 1.53833743v20.9233089c0 .84811249.69009993 1.53833736 1.53805878 1.53833736h20.92378585c.84689216 0 1.53805827-.69022487 1.53805827-1.53833736z"/>
  <path d="M3.2009115 19.6034742V6.00060308c0-.2197623.17919127-.40005337.39998059-.40005337l1.19674197.00106677 15.99922416-.00106677v.00106677h1.2031421c.21972225 0 .39998008.18029106.39998008.40005337v13.60073751c0 .22082934-.18025783.40005312-.39998008.40005312H5.9047804c-.00213325.00106677-.00426644.00106677-.00533306.00106677H3.60089209c-.22078932 0-.3999806-.17922378-.3999806-.40005305zm16.0984193-.00106684v-1.099879l-4.10006789-4.10081098-.1023948-.0917457-2.01270273 2.0472055c-.15679183.16002109-.41384626.16002109-.57063874 0l-2.01376915-2.04613872-.10026195.09067892-4.10006762 4.10081098v1.10094584c0 .00960128-.00106662.01813572-.00106662.02667016h13.0009695v-.027737zM5.49946673 19.2034211V9.52747091c0-.2197623.17919127-.40005337.39998059-.40005337h.46077762c.10666144 0 .20905625.04373962.28478641.12054985l6.15436787 6.25896344 6.15330207-6.25896344c.07572952-.07681023.17812433-.12054985.2858526-.12054985h.46077761c.21972289 0 .39998072.18029106.39998072.40005337v9.6748834h1.50072737V6.40172259h-2.19402698l-6.32182724 6.43072031c-.15679183.1600211-.41384626.1600211-.57063874 0L6.1916998 6.40172258h-.29545233L4.00087268 6.4006558v12.8027653h1.49859406zm.79996118-1.47112854l.10026182-.1301508 3.6990206-3.6996902-3.79928242-3.86504644v7.69488744zm12.99990287 0v-7.69595421l-3.80141554 3.8650458 3.70115423 3.7007576.10026131.13015081zm-6.49995156-5.75009601l5.90584746-6.00933084H6.89139954l5.90797969 6.00933084z"/>
</svg>
